<?xml version="1.0" encoding="UTF-8"?>
<svg xmlns="http://www.w3.org/2000/svg" id="Layer_1" data-name="Layer 1" viewBox="0 0 512 512" width="512" height="512"><path d="M42.258,280.323a6,6,0,1,0,0,12h.093a5.961,5.961,0,0,0,5.954-6A6.041,6.041,0,0,0,42.258,280.323Z"/><circle cx="68.422" cy="444.212" r="8.871"/><path d="M426.923,440.347H412.382a6,6,0,0,0,0,12h14.541a6,6,0,0,0,0-12Z"/><path d="M480.663,274.989H358.642a6,6,0,0,0-6,6v35.577a6,6,0,0,0,12,0V286.989H474.663V424.082H364.642V356.566a6,6,0,0,0-12,0v73.516a6,6,0,0,0,6,6H480.663a6,6,0,0,0,6-6V280.989A6,6,0,0,0,480.663,274.989Z"/><path d="M237.193,315.85a14.22,14.22,0,1,0-14.222-14.22A14.237,14.237,0,0,0,237.193,315.85Zm0-16.44a2.22,2.22,0,1,1-2.222,2.22A2.224,2.224,0,0,1,237.193,299.41Z"/><path d="M230.885,365.559h-.391a6,6,0,1,0,0,12h.391a6,6,0,0,0,0-12Z"/><path d="M487.442,252.625H431.85V62.439A22.467,22.467,0,0,0,409.406,40H69.874A22.467,22.467,0,0,0,47.43,62.439V251.368H26.312A21.335,21.335,0,0,0,5,272.677V450.692A21.335,21.335,0,0,0,26.312,472h84.219a21.335,21.335,0,0,0,21.313-21.308V336.4h54.128v18.721a10.454,10.454,0,0,1-10.444,10.44,30.7,30.7,0,0,0-30.666,30.659,6,6,0,0,0,6,6H323.525a6,6,0,0,0,6-6A30.7,30.7,0,0,0,300.337,365.6a6.18,6.18,0,0,0-.656-.037h-.822a10.454,10.454,0,0,1-10.444-10.44V336.4h43.89V452.446A19.577,19.577,0,0,0,351.863,472H487.442A19.578,19.578,0,0,0,507,452.446V272.179A19.578,19.578,0,0,0,487.442,252.625Zm-367.6,198.067A9.321,9.321,0,0,1,110.531,460H26.312A9.321,9.321,0,0,1,17,450.692v-20.31H119.844Zm0-170.369H59.88a6,6,0,1,0,0,12h59.964V418.382H17V292.323h8.017a6,6,0,0,0,0-12H17v-7.646a9.321,9.321,0,0,1,9.312-9.309h84.219a9.322,9.322,0,0,1,9.313,9.309Zm179.015,97.236a18.7,18.7,0,0,1,17.676,12.659H157.851a18.7,18.7,0,0,1,17.677-12.659,22.468,22.468,0,0,0,22.444-22.44V336.4h78.443v18.721A22.292,22.292,0,0,0,279,365.559H251.411a6,6,0,0,0,0,12Zm34.2-110.7H193.138a6,6,0,0,0,0,12H332.305V324.4H131.844V278.861h21.294a6,6,0,1,0,0-12H131.017a21.335,21.335,0,0,0-20.486-15.493H59.43V62.439A10.454,10.454,0,0,1,69.874,52H409.406A10.454,10.454,0,0,1,419.85,62.439V252.625H351.863A19.579,19.579,0,0,0,333.059,266.861ZM495,452.446A7.564,7.564,0,0,1,487.442,460H351.863a7.564,7.564,0,0,1-7.558-7.554V272.179a7.564,7.564,0,0,1,7.558-7.554H487.442A7.564,7.564,0,0,1,495,272.179Z"/></svg>
