<?xml version="1.0" encoding="UTF-8"?>
<svg xmlns="http://www.w3.org/2000/svg" id="Layer_1" data-name="Layer 1" viewBox="0 0 512 512" width="512" height="512"><path d="M31.878,279.693a5.977,5.977,0,0,0,3.993-1.523l84.056-74.979,77.478,40.922a6,6,0,0,0,6.4-.5l88.409-66.126-2.84,16.429a6,6,0,1,0,11.824,2.044l5.493-31.771a6,6,0,0,0-4.89-6.934l-31.771-5.492a6,6,0,0,0-2.045,11.824l18.5,3.2-86.829,64.944-77.807-41.1a6,6,0,0,0-6.8.828L27.882,269.215a6,6,0,0,0,4,10.478Z"/><path d="M402.026,286.729c-28.429-28.431-74.69-28.244-103.12.187a70.533,70.533,0,0,0-18.275,30.416A5.993,5.993,0,0,0,286.383,325h.122a5.931,5.931,0,0,0,5.7-4.153,60.98,60.98,0,0,1,58.266-43.382A60.9,60.9,0,1,1,293,358.922a5.986,5.986,0,0,0-11.27,4.039A73.105,73.105,0,0,0,298.9,390.037,72.984,72.984,0,0,0,402.026,286.729Z"/><path d="M177.921,180.008a81.352,81.352,0,1,0-76.5-109A6,6,0,0,0,107.081,79h.038a6.049,6.049,0,0,0,5.668-4.04,69.313,69.313,0,0,1,19.846-28.846l40.034,58.773c1.119,1.635,2.972,3.113,4.953,3.113h69a69.516,69.516,0,0,1-68.7,60.041c-33.118,0-60.881-23.624-67.726-54.384a6,6,0,0,0-11.7,2.64A81.416,81.416,0,0,0,177.921,180.008Zm-.7-89.261L142.181,39.2a69.3,69.3,0,0,1,80.254,6.331ZM188.934,96l42-42a68.83,68.83,0,0,1,16.2,40.281c.035.577.038,1.148.059,1.723Z"/><path d="M446.466,395.714a6,6,0,0,0-8.485,0l-5.026,5.027-7.357-7.357A93.156,93.156,0,0,0,306,256.441v-14.1A6.587,6.587,0,0,0,299.67,236H257.333A6.589,6.589,0,0,0,251,242.339V382H227V266.65a5.4,5.4,0,0,0-5.625-5.65H179.039A5.745,5.745,0,0,0,173,266.65V382H149V243.084A6,6,0,0,0,143.081,237H100.744A5.86,5.86,0,0,0,95,243.084V382H71V297.991A6.179,6.179,0,0,0,64.787,292H22.45c-3.314,0-6.45,2.678-6.45,5.991V382H11c-3.313,0-6,2.234-6,5.548v21.458A6,6,0,0,0,11,415H297.638a93.322,93.322,0,0,0,107.924-1.579l7.356,7.357-5.026,5.026a6,6,0,0,0,0,8.486l52.545,52.544a27.276,27.276,0,0,0,38.574-38.575ZM263,248h31v16.218c-1.979,1.511-3.922,3.091-5.8,4.782H263Zm0,33h13.987A92.325,92.325,0,0,0,263,306.093Zm0,89.485A92.049,92.049,0,0,0,268.148,382H263ZM185,273h30v21H185Zm0,33h30v76H185Zm-78-57h30v21H107Zm0,33h30V382H107ZM28,304H59v21H28Zm0,33H59v45H28ZM17,403v-9H275.782a94.454,94.454,0,0,0,7.675,9Zm390.855-7.322a81.122,81.122,0,1,1,0-114.778A81.251,81.251,0,0,1,407.855,395.678Zm8.485,8.486c.514-.515.994-1.049,1.494-1.572L433,417.756a2.167,2.167,0,1,1-3.065,3.065l-15.164-15.164C415.292,405.157,415.826,404.677,416.34,404.164ZM452.367,461.8l-31.748-31.748.784-.784.044.044a14.168,14.168,0,0,0,20.036-20.036l-.044-.044.785-.785,31.748,31.748Zm38.157,16.554a15.276,15.276,0,0,1-21.6,0l-8.069-8.069,21.605-21.6,8.069,8.07a15.275,15.275,0,0,1,0,21.6Z"/></svg>
