<?xml version="1.0" encoding="UTF-8"?>
<svg xmlns="http://www.w3.org/2000/svg" id="Layer_1" data-name="Layer 1" viewBox="0 0 512 512" width="512" height="512"><path d="M143.12,261a6,6,0,0,0,6-6,106.9,106.9,0,0,1,21.539-64.75,108.371,108.371,0,0,1,54.691-38.311,6,6,0,1,0-3.491-11.481,120.465,120.465,0,0,0-60.792,42.581A118.806,118.806,0,0,0,137.12,255,6,6,0,0,0,143.12,261Z"/><path d="M245.992,147.79c.189,0,.38-.009.571-.028,3.425-.324,6.916-.488,10.377-.488a6,6,0,0,0,0-12c-3.836,0-7.707.183-11.5.542a6,6,0,0,0,.557,11.974Z"/><path d="M480.529,140.366c20.789-22.766,25.92-57.038,12.769-85.283a6,6,0,0,0-9.683-1.708l-41.3,41.315-25.686-25.7,41.344-41.363a6,6,0,0,0-1.688-9.67A77.541,77.541,0,0,0,368.673,33.5a76.769,76.769,0,0,0-21.446,40.751,110.312,110.312,0,0,1-2.924,12.18,192.409,192.409,0,0,0-32.318-12.1l-8.43-48.361A6,6,0,0,0,297.644,21H216.38a6,6,0,0,0-5.91,4.966l-8.461,48.377a187.221,187.221,0,0,0-34.662,13.819L126.3,58.865a6,6,0,0,0-7.723.634L61.119,116.782a6,6,0,0,0-.657,7.721l29.032,40.923a188.217,188.217,0,0,0-15.147,34.6l-50.34,8.445A6,6,0,0,0,19,214.393V295.6a6,6,0,0,0,5,5.916L74.34,310a190.556,190.556,0,0,0,14.517,34.175,93.436,93.436,0,0,1-13.517,3.306,76.887,76.887,0,0,0-63.952,65.1A77.673,77.673,0,0,0,17.8,456.611a6,6,0,0,0,9.683,1.709l39.744-39.761,25.686,25.7-39.79,39.808a6,6,0,0,0,1.687,9.67,77.861,77.861,0,0,0,88.005-15.156,76.917,76.917,0,0,0,21.251-40.946,113.6,113.6,0,0,1,3.76-14.93,188.393,188.393,0,0,0,34.141,14.917l8.5,50.379a6,6,0,0,0,5.916,5h81.264a6,6,0,0,0,5.917-5l8.483-50.372a191.407,191.407,0,0,0,34.677-14.794l41.037,28.827a6,6,0,0,0,7.694-.67l57.461-57.532a6,6,0,0,0,.653-7.706L424.5,344.667c5.963-11.414,9.926-23.292,13.213-34.675l48.321-8.479A6,6,0,0,0,491,295.6V214.393a6,6,0,0,0-4.966-5.911L437.7,200.027a189.566,189.566,0,0,0-12.871-32.845,96.959,96.959,0,0,1,11.312-2.578A76.536,76.536,0,0,0,480.529,140.366ZM84.815,303.085a6,6,0,0,0-4.781-4.3L31,290.529V219.47l49.031-8.225a6,6,0,0,0,4.784-4.3c3.353-11.96,8.75-24.342,16.986-38.967a6,6,0,0,0-.334-6.416L73.186,121.7,123.46,71.579l39.974,28.534a6,6,0,0,0,6.427.346c11.158-6.274,23.924-11.381,39.03-15.61a6,6,0,0,0,4.293-4.744L221.422,33H292.6l8.212,47.1a6,6,0,0,0,4.293,4.747c10.848,3.037,23.314,6.932,35.074,12.947a103.389,103.389,0,0,1-18.428,28.751,144.174,144.174,0,0,0-64.816-15.434c-56.925,0-106.225,33.741-129.515,81.243a5.973,5.973,0,1,0,10.7,5.3A131.816,131.816,0,0,1,312.88,135.615l-40.5,40.516a80.388,80.388,0,0,0-94.346,94.389L137.6,310.969a132.419,132.419,0,0,1-11.371-73.261A5.96,5.96,0,0,0,120.312,231h-.053a5.968,5.968,0,0,0-5.927,5.188,144.195,144.195,0,0,0,14.3,83.711,105.6,105.6,0,0,1-28.512,19.835A176.112,176.112,0,0,1,84.815,303.085ZM188.7,259.847c-.113-1.611-.177-3.228-.177-4.849a68.46,68.46,0,0,1,68.407-68.358c1.594,0,3.186.061,4.773.171ZM427.2,206.911a6,6,0,0,0,4.743,4.291L479,219.434v71.13l-47.063,8.258a6,6,0,0,0-4.741,4.29c-3.605,12.864-7.915,26.5-14.974,39.03a6,6,0,0,0,.33,6.41l28.3,40-50.323,50.385-39.974-28.08a6,6,0,0,0-6.391-.32,178.706,178.706,0,0,1-39.029,16.611,6,6,0,0,0-4.3,4.781L292.569,481H221.452l-8.281-49.072a6,6,0,0,0-4.3-4.779c-11.232-3.145-22.946-8.166-36.68-15.729a101.621,101.621,0,0,1,19.2-28.461,144.135,144.135,0,0,0,65.54,15.763c79.3,0,143.812-64.474,143.812-143.724a143.887,143.887,0,0,0-15.785-65.525,103.457,103.457,0,0,1,28.477-18.208A180.53,180.53,0,0,1,427.2,206.911Zm-102.11,42.238c.165,1.941.254,3.892.254,5.849a68.459,68.459,0,0,1-68.406,68.358c-1.932,0-3.858-.086-5.775-.246Zm-84.5,84.537a80.387,80.387,0,0,0,95.061-95.1l40.279-40.3A131.942,131.942,0,0,1,388.746,255c0,72.633-59.131,131.724-131.812,131.724a132.2,132.2,0,0,1-56.619-12.745ZM372.562,184.679,184.3,373.026c-16.577,16.584-27.659,38.187-32.048,62.473a64.964,64.964,0,0,1-17.929,34.6,65.728,65.728,0,0,1-66.25,15.982L105.635,448.5a6,6,0,0,0,0-8.484L71.465,405.83a6,6,0,0,0-8.486,0L25.513,443.312a66.349,66.349,0,0,1,14.106-63.7,64.764,64.764,0,0,1,37.678-20.3c22.682-3.749,43.857-14.919,61.234-32.3L326.794,138.668a116.913,116.913,0,0,0,32.241-62.279,64.82,64.82,0,0,1,18.125-34.4A65.667,65.667,0,0,1,443.007,25.63l-39.1,39.12a6,6,0,0,0,0,8.483l34.17,34.186a6,6,0,0,0,8.487,0l39.026-39.044c6.826,22.068,1.67,46.826-13.92,63.9a64.646,64.646,0,0,1-37.483,20.49A114.332,114.332,0,0,0,372.562,184.679Z"/><path d="M338.188,156.6A18.093,18.093,0,0,0,325.3,161.94L162.632,324.684A18.218,18.218,0,1,0,188.4,350.442L351.072,187.7h0a18.218,18.218,0,0,0-12.885-31.1Zm4.4,22.614L179.914,341.958a6.218,6.218,0,0,1-8.795-8.791L333.791,170.423a6.218,6.218,0,0,1,8.794,8.792Z"/></svg>
